<svg width="18" height="18" viewBox="0 0 18 18" fill="none" xmlns="http://www.w3.org/2000/svg">
<path d="M17.6584 5.61455L9.43188 0.130188C9.15108 -0.0426042 8.85141 -0.0441862 8.56805 0.130188L0.341507 5.61455C0.13057 5.75514 0 6.0063 0 6.25738V11.7417C0 11.9928 0.13057 12.244 0.341542 12.3846L8.56809 17.8697C8.84888 18.0425 9.14855 18.0441 9.43191 17.8697L17.6585 12.3846C17.8694 12.244 18 11.9928 18 11.7417V6.25738C18 6.0063 17.8694 5.75514 17.6584 5.61455ZM9.77342 2.21941L15.8303 6.25738L13.1283 8.06543L9.77342 5.82546V2.21941ZM8.22655 2.21941V5.82546L4.87163 8.06543L2.16963 6.25738L8.22655 2.21941ZM1.54687 7.70381L3.48549 8.99957L1.54687 10.2953V7.70381ZM8.22655 15.7797L2.16963 11.7417L4.87163 9.9337L8.22655 12.1737V15.7797ZM8.99998 10.8277L6.26782 8.99957L8.99998 7.17144L11.7321 8.99957L8.99998 10.8277ZM9.77342 15.7797V12.1737L13.1283 9.9337L15.8303 11.7417L9.77342 15.7797ZM16.4531 10.2953L14.5145 8.99957L16.4531 7.70381V10.2953Z" fill="#F4F4ED"/>
</svg>
