<svg width="18" height="18" viewBox="0 0 18 18" fill="none" xmlns="http://www.w3.org/2000/svg">
<path d="M9 0C4.03737 0 0 4.03737 0 9C0 13.9626 4.03737 18 9 18C13.9626 18 18 13.9626 18 9C18 4.03737 13.9626 0 9 0ZM14.9505 4.15038C16.0212 5.4585 16.6696 7.12462 16.6865 8.93907C16.433 8.88547 13.8915 8.36996 11.3336 8.69164C11.1248 8.18209 10.9278 7.73383 10.658 7.18146C13.5003 6.021 14.7885 4.36961 14.9505 4.15038ZM14.0959 3.26141C13.9577 3.45836 12.8005 5.01373 10.0669 6.03831C8.80723 3.72386 7.41103 1.82254 7.19855 1.53802C9.63639 0.950371 12.2054 1.58411 14.0959 3.26141ZM5.73173 2.05476C5.93441 2.33271 7.30811 4.23639 8.58186 6.50065C4.98596 7.45556 1.8188 7.4418 1.47498 7.43727C1.97347 5.05179 3.58106 3.06918 5.73173 2.05476ZM1.31262 9.01172C1.31262 8.93312 1.31418 8.85487 1.31654 8.77681C1.65288 8.78371 5.37815 8.83172 9.21716 7.68281C9.43723 8.1135 9.64746 8.55069 9.84041 8.98741C7.06061 9.77037 4.53498 12.0186 3.28888 14.1517C2.06107 12.7889 1.31262 10.9862 1.31262 9.01172ZM4.28142 15.0763C5.08442 13.4348 7.26369 11.3158 10.3629 10.2585C11.4422 13.0632 11.8885 15.4137 12.0028 16.0882C9.53104 17.141 6.55875 16.8522 4.28142 15.0763ZM13.2952 15.3844C13.2164 14.9167 12.8073 12.6663 11.8018 9.90334C14.2107 9.51772 16.3272 10.149 16.5902 10.2319C16.2475 12.3709 15.0198 14.2182 13.2952 15.3844Z" fill="#F61067"/>
</svg>
